# Made in Blockbench 4.12.4
mtllib reich_wall_flag.mtl

o holder
v 0.09375000000000003 0.25 0.5
v 0.09375000000000003 0.25 0.4375
v 0.09375000000000003 0.0625 0.5
v 0.09375000000000003 0.0625 0.4375
v -0.09374999999999997 0.25 0.4375
v -0.09374999999999997 0.25 0.5
v -0.09374999999999997 0.0625 0.4375
v -0.09374999999999997 0.0625 0.5
vt 0.75 0.9375
vt 0.796875 0.9375
vt 0.796875 0.890625
vt 0.75 0.890625
vt 0.734375 0.9375
vt 0.75 0.9375
vt 0.75 0.890625
vt 0.734375 0.890625
vt 0.8125 0.9375
vt 0.859375 0.9375
vt 0.859375 0.890625
vt 0.8125 0.890625
vt 0.796875 0.9375
vt 0.8125 0.9375
vt 0.8125 0.890625
vt 0.796875 0.890625
vt 0.796875 0.9375
vt 0.75 0.9375
vt 0.75 0.953125
vt 0.796875 0.953125
vt 0.84375 0.953125
vt 0.796875 0.953125
vt 0.796875 0.9375
vt 0.84375 0.9375
vn 0 0 -1
vn 1 0 0
vn 0 0 1
vn -1 0 0
vn 0 1 0
vn 0 -1 0
usemtl m_7ea5829f-e288-f8e7-76fb-a9921e52bebc
f 4/4/1 7/3/1 5/2/1 2/1/1
f 3/8/2 4/7/2 2/6/2 1/5/2
f 8/12/3 3/11/3 1/10/3 6/9/3
f 7/16/4 8/15/4 6/14/4 5/13/4
f 6/20/5 1/19/5 2/18/5 5/17/5
f 7/24/6 4/23/6 3/22/6 8/21/6
o pole
v 0.03125 1.1289659979556623 -0.490577650307344
v 0.03125 1.084771824131503 -0.5347718241315033
v 0.03125 0.15669417382415926 0.48169417382415924
v 0.03125 0.11250000000000004 0.4375
v -0.03125 1.084771824131503 -0.5347718241315033
v -0.03125 1.1289659979556623 -0.490577650307344
v -0.03125 0.11250000000000004 0.4375
v -0.03125 0.15669417382415926 0.48169417382415924
vt 0.78125 0.84375
vt 0.796875 0.84375
vt 0.796875 0.5
vt 0.78125 0.5
vt 0.765625 0.84375
vt 0.78125 0.84375
vt 0.78125 0.5
vt 0.765625 0.5
vt 0.8125 0.84375
vt 0.828125 0.84375
vt 0.828125 0.5
vt 0.8125 0.5
vt 0.796875 0.84375
vt 0.8125 0.84375
vt 0.8125 0.5
vt 0.796875 0.5
vt 0.796875 0.84375
vt 0.78125 0.84375
vt 0.78125 0.859375
vt 0.796875 0.859375
vt 0.8125 0.859375
vt 0.796875 0.859375
vt 0.796875 0.84375
vt 0.8125 0.84375
vn 0 -0.7071067811865476 -0.7071067811865475
vn 1 0 0
vn 0 0.7071067811865476 0.7071067811865475
vn -1 0 0
vn 0 0.7071067811865475 -0.7071067811865476
vn 0 -0.7071067811865475 0.7071067811865476
usemtl m_7ea5829f-e288-f8e7-76fb-a9921e52bebc
f 12/28/7 15/27/7 13/26/7 10/25/7
f 11/32/8 12/31/8 10/30/8 9/29/8
f 16/36/9 11/35/9 9/34/9 14/33/9
f 15/40/10 16/39/10 14/38/10 13/37/10
f 14/44/11 9/43/11 10/42/11 13/41/11
f 15/48/12 12/47/12 11/46/12 16/45/12
o flag_1
v 0 1.0405776503073438 -0.4905776503073438
v 0 1.0405776503073438 -0.4905776503073438
v 0 0.5102475644174331 0.03975243558256694
v 0 0.5102475644174331 0.03975243558256694
v -4.163336342344337e-17 0.9079951288348661 -0.6231601717798214
v -4.163336342344337e-17 0.9079951288348661 -0.6231601717798214
v -4.163336342344337e-17 0.37766504294495545 -0.09283008588991067
v -4.163336342344337e-17 0.37766504294495545 -0.09283008588991067
vt 0 1
vt 0.046875 1
vt 0.046875 0.8125
vt 0 0.8125
vt 0 1
vt 0 1
vt 0 0.8125
vt 0 0.8125
vt 0.046875 1
vt 0.09375 1
vt 0.09375 0.8125
vt 0.046875 0.8125
vt 0.046875 1
vt 0.046875 1
vt 0.046875 0.8125
vt 0.046875 0.8125
vt 0.046875 1
vt 0 1
vt 0 1
vt 0.046875 1
vt 0.09375 1
vt 0.046875 1
vt 0.046875 1
vt 0.09375 1
vn 1 -1.5700924586837752e-16 -1.570092458683775e-16
vn 2.220446049250313e-16 0.7071067811865476 0.7071067811865475
vn -1 1.5700924586837752e-16 1.570092458683775e-16
vn -2.220446049250313e-16 -0.7071067811865476 -0.7071067811865475
vn 0 0.7071067811865475 -0.7071067811865476
vn 0 -0.7071067811865475 0.7071067811865476
usemtl m_7ea5829f-e288-f8e7-76fb-a9921e52bebc
f 20/52/13 23/51/13 21/50/13 18/49/13
f 19/56/14 20/55/14 18/54/14 17/53/14
f 24/60/15 19/59/15 17/58/15 22/57/15
f 23/64/16 24/63/16 22/62/16 21/61/16
f 22/68/17 17/67/17 18/66/17 21/65/17
f 23/72/18 20/71/18 19/70/18 24/69/18
o flag_2
v 6.341309144453078e-10 0.9079951213763162 -0.6231601792383707
v 6.341309144453078e-10 0.9079951213763162 -0.6231601792383707
v 6.341309422008834e-10 0.3776650354864054 -0.09283009334846001
v 6.341309422008834e-10 0.3776650354864054 -0.09283009334846001
v -0.056382336772920205 0.7815489232750736 -0.7496063773396132
v -0.056382336772920205 0.7815489232750736 -0.7496063773396132
v -0.05638233677292018 0.25121883738516293 -0.21927629144970248
v -0.05638233677292018 0.25121883738516293 -0.21927629144970248
vt 0 0.8125
vt 0.046875 0.8125
vt 0.046875 0.625
vt 0 0.625
vt 0 0.8125
vt 0 0.8125
vt 0 0.625
vt 0 0.625
vt 0.046875 0.8125
vt 0.09375 0.8125
vt 0.09375 0.625
vt 0.046875 0.625
vt 0.046875 0.8125
vt 0.046875 0.8125
vt 0.046875 0.625
vt 0.046875 0.625
vt 0.046875 0.8125
vt 0 0.8125
vt 0 0.8125
vt 0.046875 0.8125
vt 0.09375 0.8125
vt 0.046875 0.8125
vt 0.046875 0.8125
vt 0.09375 0.8125
vn 0.9537169507482268 -0.21263110997159396 -0.21263110997159398
vn 0.3007057995042733 0.6743797232066279 0.6743797232066278
vn -0.9537169507482268 0.21263110997159396 0.21263110997159398
vn -0.3007057995042733 -0.6743797232066279 -0.6743797232066278
vn -5.551115123125783e-17 0.7071067811865475 -0.7071067811865476
vn 5.551115123125783e-17 -0.7071067811865475 0.7071067811865476
usemtl m_7ea5829f-e288-f8e7-76fb-a9921e52bebc
f 28/76/19 31/75/19 29/74/19 26/73/19
f 27/80/20 28/79/20 26/78/20 25/77/20
f 32/84/21 27/83/21 25/82/21 30/81/21
f 31/88/22 32/87/22 30/86/22 29/85/22
f 30/92/23 25/91/23 26/90/23 29/89/23
f 31/96/24 28/95/24 27/94/24 32/93/24
o flag_3
v -0.056441945341994176 0.7815622128751543 -0.7495930877395337
v -0.056441945341994176 0.7815622128751543 -0.7495930877395337
v -0.056441945341994176 0.25123212698524366 -0.219263001849623
v -0.056441945341994176 0.25123212698524366 -0.219263001849623
v -0.05644194534199422 0.6489796914026766 -0.8821756092120113
v -0.05644194534199422 0.6489796914026766 -0.8821756092120113
v -0.05644194534199422 0.11864960551276599 -0.3518455233221006
v -0.05644194534199422 0.11864960551276599 -0.3518455233221006
vt 0 0.625
vt 0.046875 0.625
vt 0.046875 0.4375
vt 0 0.4375
vt 0 0.625
vt 0 0.625
vt 0 0.4375
vt 0 0.4375
vt 0.046875 0.625
vt 0.09375 0.625
vt 0.09375 0.4375
vt 0.046875 0.4375
vt 0.046875 0.625
vt 0.046875 0.625
vt 0.046875 0.4375
vt 0.046875 0.4375
vt 0.046875 0.625
vt 0 0.625
vt 0 0.625
vt 0.046875 0.625
vt 0.09375 0.625
vt 0.046875 0.625
vt 0.046875 0.625
vt 0.09375 0.625
vn 1 -1.5700924586837752e-16 -1.570092458683775e-16
vn 2.220446049250313e-16 0.7071067811865476 0.7071067811865475
vn -1 1.5700924586837752e-16 1.570092458683775e-16
vn -2.220446049250313e-16 -0.7071067811865476 -0.7071067811865475
vn 0 0.7071067811865475 -0.7071067811865476
vn 0 -0.7071067811865475 0.7071067811865476
usemtl m_7ea5829f-e288-f8e7-76fb-a9921e52bebc
f 36/100/25 39/99/25 37/98/25 34/97/25
f 35/104/26 36/103/26 34/102/26 33/101/26
f 40/108/27 35/107/27 33/106/27 38/105/27
f 39/112/28 40/111/28 38/110/28 37/109/28
f 38/116/29 33/115/29 34/114/29 37/113/29
f 39/120/30 36/119/30 35/118/30 40/117/30
o flag_4
v -0.0564467139117988 0.6489966181649669 -0.8821586824497205
v -0.0564467139117988 0.6489966181649669 -0.8821586824497205
v -0.0564467139117983 0.11866653227505664 -0.3518285965598096
v -0.0564467139117983 0.11866653227505664 -0.3518285965598096
v 0.015306429656655587 0.5265063402078064 -1.0046489604068811
v 0.015306429656655587 0.5265063402078064 -1.0046489604068811
v 0.015306429656656087 -0.003823745682103974 -0.4743188745169702
v 0.015306429656656087 -0.003823745682103974 -0.4743188745169702
vt 0.265625 1
vt 0.3125 1
vt 0.3125 0.8125
vt 0.265625 0.8125
vt 0.265625 1
vt 0.265625 1
vt 0.265625 0.8125
vt 0.265625 0.8125
vt 0.3125 1
vt 0.359375 1
vt 0.359375 0.8125
vt 0.3125 0.8125
vt 0.3125 1
vt 0.3125 1
vt 0.3125 0.8125
vt 0.3125 0.8125
vt 0.3125 1
vt 0.265625 1
vt 0.265625 1
vt 0.3125 1
vt 0.359375 1
vt 0.3125 1
vt 0.3125 1
vt 0.359375 1
vn 0.923879532511287 0.2705980500730987 0.2705980500730976
vn -0.3826834323650893 0.6532814824381884 0.6532814824381884
vn -0.923879532511287 -0.2705980500730987 -0.2705980500730976
vn 0.3826834323650893 -0.6532814824381884 -0.6532814824381884
vn -7.216449660063516e-16 0.7071067811865472 -0.7071067811865478
vn 7.216449660063516e-16 -0.7071067811865472 0.7071067811865478
usemtl m_7ea5829f-e288-f8e7-76fb-a9921e52bebc
f 44/124/31 47/123/31 45/122/31 42/121/31
f 43/128/32 44/127/32 42/126/32 41/125/32
f 48/132/33 43/131/33 41/130/33 46/129/33
f 47/136/34 48/135/34 46/134/34 45/133/34
f 46/140/35 41/139/35 42/138/35 45/137/35
f 47/144/36 44/143/36 43/142/36 48/141/36
o flag_5
v 0.015306423665778945 0.5265063515949573 -1.0046489490197306
v 0.015306423665778945 0.5265063515949573 -1.0046489490197306
v 0.015306423665778945 -0.003823734294953307 -0.47431886312981986
v 0.015306423665778945 -0.003823734294953307 -0.47431886312981986
v 0.015306423665778904 0.39392383012247967 -1.1372314704922082
v 0.015306423665778904 0.39392383012247967 -1.1372314704922082
v 0.015306423665778904 -0.13640625576743093 -0.6069013846022975
v 0.015306423665778904 -0.13640625576743093 -0.6069013846022975
vt 0.265625 0.8125
vt 0.3125 0.8125
vt 0.3125 0.625
vt 0.265625 0.625
vt 0.265625 0.8125
vt 0.265625 0.8125
vt 0.265625 0.625
vt 0.265625 0.625
vt 0.3125 0.8125
vt 0.359375 0.8125
vt 0.359375 0.625
vt 0.3125 0.625
vt 0.3125 0.8125
vt 0.3125 0.8125
vt 0.3125 0.625
vt 0.3125 0.625
vt 0.3125 0.8125
vt 0.265625 0.8125
vt 0.265625 0.8125
vt 0.3125 0.8125
vt 0.359375 0.8125
vt 0.3125 0.8125
vt 0.3125 0.8125
vt 0.359375 0.8125
vn 1 -1.5700924586837752e-16 -1.570092458683775e-16
vn 2.220446049250313e-16 0.7071067811865476 0.7071067811865475
vn -1 1.5700924586837752e-16 1.570092458683775e-16
vn -2.220446049250313e-16 -0.7071067811865476 -0.7071067811865475
vn 0 0.7071067811865475 -0.7071067811865476
vn 0 -0.7071067811865475 0.7071067811865476
usemtl m_7ea5829f-e288-f8e7-76fb-a9921e52bebc
f 52/148/37 55/147/37 53/146/37 50/145/37
f 51/152/38 52/151/38 50/150/38 49/149/38
f 56/156/39 51/155/39 49/154/39 54/153/39
f 55/160/40 56/159/40 54/158/40 53/157/40
f 54/164/41 49/163/41 50/162/41 53/161/41
f 55/168/42 52/167/42 51/166/42 56/165/42
o flag_6
v 0.015306424299909693 0.39392382266392945 -1.137231477950758
v 0.015306424299909693 0.39392382266392945 -1.137231477950758
v 0.015306424299909721 -0.13640626322598126 -0.606901392060847
v 0.015306424299909721 -0.13640626322598126 -0.606901392060847
v -0.0410759131071414 0.267477624562687 -1.263677676052
v -0.0410759131071414 0.267477624562687 -1.263677676052
v -0.04107591310714137 -0.2628524613272237 -0.7333475901620895
v -0.04107591310714137 -0.2628524613272237 -0.7333475901620895
vt 0.265625 0.625
vt 0.3125 0.625
vt 0.3125 0.4375
vt 0.265625 0.4375
vt 0.265625 0.625
vt 0.265625 0.625
vt 0.265625 0.4375
vt 0.265625 0.4375
vt 0.3125 0.625
vt 0.359375 0.625
vt 0.359375 0.4375
vt 0.3125 0.4375
vt 0.3125 0.625
vt 0.3125 0.625
vt 0.3125 0.4375
vt 0.3125 0.4375
vt 0.3125 0.625
vt 0.265625 0.625
vt 0.265625 0.625
vt 0.3125 0.625
vt 0.359375 0.625
vt 0.3125 0.625
vt 0.3125 0.625
vt 0.359375 0.625
vn 0.9537169507482268 -0.21263110997159396 -0.21263110997159398
vn 0.3007057995042733 0.6743797232066279 0.6743797232066278
vn -0.9537169507482268 0.21263110997159396 0.21263110997159398
vn -0.3007057995042733 -0.6743797232066279 -0.6743797232066278
vn -5.551115123125783e-17 0.7071067811865475 -0.7071067811865476
vn 5.551115123125783e-17 -0.7071067811865475 0.7071067811865476
usemtl m_7ea5829f-e288-f8e7-76fb-a9921e52bebc
f 60/172/43 63/171/43 61/170/43 58/169/43
f 59/176/44 60/175/44 58/174/44 57/173/44
f 64/180/45 59/179/45 57/178/45 62/177/45
f 63/184/46 64/183/46 62/182/46 61/181/46
f 62/188/47 57/187/47 58/186/47 61/185/47
f 63/192/48 60/191/48 59/190/48 64/189/48